<?xml version="1.0" encoding="UTF-8"?>
<svg version="1.1" xmlns="http://www.w3.org/2000/svg" width="800" height="800">
<path d="M0 0 C0.86303238 -0.00701431 1.72606476 -0.01402863 2.61524963 -0.02125549 C5.38417843 -0.03866251 8.1528935 -0.04510744 10.921875 -0.046875 C11.86694916 -0.04754974 12.81202332 -0.04822449 13.78573608 -0.04891968 C27.30627784 -0.03355363 40.41835473 0.29354115 53.671875 3.203125 C54.52362305 3.38004883 55.37537109 3.55697266 56.25292969 3.73925781 C98.42074872 12.59495865 136.55503098 32.3793025 167.671875 62.203125 C168.25727051 62.75597168 168.84266602 63.30881836 169.44580078 63.87841797 C179.31179748 73.230209 187.76543874 83.15380715 195.671875 94.203125 C196.10806152 94.79996094 196.54424805 95.39679688 196.99365234 96.01171875 C221.07975408 129.14067272 236.65041208 172.37146124 236.875 213.53125 C236.88201431 214.39428238 236.88902863 215.25731476 236.89625549 216.14649963 C236.91366251 218.91542843 236.92010744 221.6841435 236.921875 224.453125 C236.92254974 225.39819916 236.92322449 226.34327332 236.92391968 227.31698608 C236.90855363 240.83752784 236.58145885 253.94960473 233.671875 267.203125 C233.49495117 268.05487305 233.31802734 268.90662109 233.13574219 269.78417969 C224.28004135 311.95199872 204.4956975 350.08628098 174.671875 381.203125 C174.11902832 381.78852051 173.56618164 382.37391602 172.99658203 382.97705078 C163.644791 392.84304748 153.72119285 401.29668874 142.671875 409.203125 C142.07503906 409.63931152 141.47820312 410.07549805 140.86328125 410.52490234 C107.73432728 434.61100408 64.50353876 450.18166208 23.34375 450.40625 C22.48071762 450.41326431 21.61768524 450.42027863 20.72850037 450.42750549 C17.95957157 450.44491251 15.1908565 450.45135744 12.421875 450.453125 C11.00426376 450.45413712 11.00426376 450.45413712 9.55801392 450.45516968 C-3.96252784 450.43980363 -17.07460473 450.11270885 -30.328125 447.203125 C-31.17987305 447.02620117 -32.03162109 446.84927734 -32.90917969 446.66699219 C-75.07699872 437.81129135 -113.21128098 418.0269475 -144.328125 388.203125 C-144.91352051 387.65027832 -145.49891602 387.09743164 -146.10205078 386.52783203 C-155.96804748 377.176041 -164.42168874 367.25244285 -172.328125 356.203125 C-172.76431152 355.60628906 -173.20049805 355.00945312 -173.64990234 354.39453125 C-197.73600408 321.26557728 -213.30666208 278.03478876 -213.53125 236.875 C-213.53826431 236.01196762 -213.54527863 235.14893524 -213.55250549 234.25975037 C-213.56991251 231.49082157 -213.57635744 228.7221065 -213.578125 225.953125 C-213.57879974 225.00805084 -213.57947449 224.06297668 -213.58016968 223.08926392 C-213.56480363 209.56872216 -213.23770885 196.45664527 -210.328125 183.203125 C-210.15120117 182.35137695 -209.97427734 181.49962891 -209.79199219 180.62207031 C-200.93629135 138.45425128 -181.1519475 100.31996902 -151.328125 69.203125 C-150.77527832 68.61772949 -150.22243164 68.03233398 -149.65283203 67.42919922 C-140.301041 57.56320252 -130.37744285 49.10956126 -119.328125 41.203125 C-118.43287109 40.54884521 -118.43287109 40.54884521 -117.51953125 39.88134766 C-84.39057728 15.79524592 -41.15978876 0.22458792 0 0 Z M-109.328125 99.203125 C-110.73964844 100.51990234 -110.73964844 100.51990234 -112.1796875 101.86328125 C-145.34975199 133.38105212 -161.87062404 178.50716925 -163.27587891 223.59716797 C-164.18699952 269.04250187 -145.62002396 313.59200602 -114.328125 346.203125 C-113.45027344 347.14414062 -112.57242188 348.08515625 -111.66796875 349.0546875 C-80.15019788 382.22475199 -35.02408075 398.74562404 10.06591797 400.15087891 C55.51125187 401.06199952 100.06075602 382.49502396 132.671875 351.203125 C134.08339844 349.88634766 134.08339844 349.88634766 135.5234375 348.54296875 C168.69350199 317.02519788 185.21437404 271.89908075 186.61962891 226.80908203 C187.53074952 181.36374813 168.96377396 136.81424398 137.671875 104.203125 C136.79402344 103.26210938 135.91617187 102.32109375 135.01171875 101.3515625 C103.49394788 68.18149801 58.36783075 51.66062596 13.27783203 50.25537109 C-32.16750187 49.34425048 -76.71700602 67.91122604 -109.328125 99.203125 Z " fill="#E3D8B3" transform="translate(388.328125,174.796875)"/>
<path d="M0 0 C6.21022081 3.77380156 11.12756342 9.38269026 13.4375 16.3125 C13.54831269 17.80855922 13.6062018 19.30887507 13.63037109 20.80883789 C13.64643402 21.71730972 13.66249695 22.62578156 13.67904663 23.56178284 C13.72376567 27.73120222 13.76459723 31.9004646 13.78759766 36.07006836 C13.8041056 38.26093201 13.83132671 40.45174297 13.86962891 42.64233398 C13.92477623 45.81522322 13.94633379 48.98685036 13.9609375 52.16015625 C13.98360687 53.12719986 14.00627625 54.09424347 14.02963257 55.09059143 C14.00589499 62.84090937 11.93729914 69.32174701 6.75814819 75.22743225 C1.73838849 80.09352783 -4.63340443 82.35688709 -11.5625 82.6875 C-18.49238932 82.35684922 -24.86182934 80.09265392 -29.88356018 75.2281189 C-35.84314817 68.42841159 -37.3138696 61.12343899 -37.19140625 52.3359375 C-37.19381821 51.32584625 -37.19623016 50.315755 -37.19871521 49.27505493 C-37.19774232 47.15566044 -37.18448358 45.03623875 -37.15942383 42.91699219 C-37.1250114 39.6885698 -37.13882231 36.46287495 -37.15820312 33.234375 C-37.15130612 31.16405096 -37.14163505 29.0937339 -37.12890625 27.0234375 C-37.13386612 26.0680307 -37.13882599 25.1126239 -37.14393616 24.12826538 C-37.0117068 16.54591034 -35.15434632 11.31358522 -30.1875 5.5625 C-21.75334868 -1.66677256 -10.67557805 -5.07192214 0 0 Z " fill="#E2D8B2" transform="translate(411.5625,676.6875)"/>
<path d="M0 0 C0.90847183 -0.01606293 1.81694366 -0.03212585 2.75294495 -0.04867554 C6.92236433 -0.09339458 11.09162671 -0.13422614 15.26123047 -0.15722656 C17.45209412 -0.17373451 19.64290508 -0.20095562 21.83349609 -0.23925781 C25.00638533 -0.29440514 28.17801247 -0.31596269 31.35131836 -0.33056641 C32.31836197 -0.35323578 33.28540558 -0.37590515 34.28175354 -0.39926147 C42.03207148 -0.3755239 48.51290912 1.69307196 54.41859436 6.8722229 C59.28468994 11.8919826 61.5480492 18.26377553 61.87866211 25.19287109 C61.54801133 32.12276041 59.28381603 38.49220043 54.41928101 43.51393127 C47.61957369 49.47351926 40.3146011 50.9442407 31.52709961 50.82177734 C30.51700836 50.8241893 29.50691711 50.82660126 28.46621704 50.8290863 C26.34682255 50.82811342 24.22740085 50.81485467 22.1081543 50.78979492 C18.87973191 50.7553825 15.65403706 50.76919341 12.42553711 50.78857422 C10.35521307 50.78167721 8.28489601 50.77200614 6.21459961 50.75927734 C4.78148941 50.76671715 4.78148941 50.76671715 3.31942749 50.77430725 C-4.26292755 50.64207789 -9.49525268 48.78471742 -15.24633789 43.81787109 C-21.56128321 36.45043489 -22.856286 31.25845426 -22.77758789 21.71630859 C-22.19986367 14.47870795 -18.95881079 9.87499072 -13.49633789 5.19287109 C-8.92859618 1.90409706 -5.63242323 0.0907567 0 0 Z " fill="#E2D8B2" transform="translate(697.496337890625,374.80712890625)"/>
<path d="M0 0 C1.01009125 -0.00241196 2.0201825 -0.00482391 3.06088257 -0.00730896 C5.18027706 -0.00633607 7.29969875 0.00692267 9.41894531 0.03198242 C12.6473677 0.06639485 15.87306255 0.05258394 19.1015625 0.03320312 C21.17188654 0.04010013 23.2422036 0.0497712 25.3125 0.0625 C26.7456102 0.0550602 26.7456102 0.0550602 28.20767212 0.04747009 C35.79002716 0.17969945 41.02235228 2.03705993 46.7734375 7.00390625 C53.08838282 14.37134246 54.38338561 19.56332308 54.3046875 29.10546875 C53.72696328 36.34306939 50.4859104 40.94678662 45.0234375 45.62890625 C40.45569579 48.91768028 37.15952283 50.73102065 31.52709961 50.82177734 C30.61862778 50.83784027 29.71015594 50.8539032 28.77415466 50.87045288 C24.60473528 50.91517192 20.4354729 50.95600348 16.26586914 50.97900391 C14.07500549 50.99551185 11.88419453 51.02273296 9.69360352 51.06103516 C6.52071428 51.11618248 3.34908714 51.13774004 0.17578125 51.15234375 C-0.79126236 51.17501312 -1.75830597 51.1976825 -2.75465393 51.22103882 C-10.50497187 51.19730124 -16.98580951 49.12870539 -22.89149475 43.94955444 C-27.75759033 38.92979474 -30.02094959 32.55800182 -30.3515625 25.62890625 C-30.02091172 18.69901693 -27.75671642 12.32957691 -22.8921814 7.30784607 C-16.09247409 1.34825808 -8.78750149 -0.12246335 0 0 Z " fill="#E2D8B2" transform="translate(70.9765625,374.37109375)"/>
<path d="M0 0 C5.5961015 4.28508423 9.30102293 10.51311364 10.51248169 17.46636963 C10.68918151 20.25428603 10.71861316 22.99981241 10.6796875 25.79296875 C10.68209946 26.80306 10.68451141 27.81315125 10.68699646 28.85385132 C10.68602357 30.97324581 10.67276483 33.0926675 10.64770508 35.21191406 C10.61329265 38.44033645 10.62710356 41.6660313 10.64648438 44.89453125 C10.63958737 46.96485529 10.6299163 49.03517235 10.6171875 51.10546875 C10.62214737 52.06087555 10.62710724 53.01628235 10.63221741 54.00064087 C10.49998805 61.58299591 8.64262757 66.81532103 3.67578125 72.56640625 C-3.69165496 78.88135157 -8.88363558 80.17635436 -18.42578125 80.09765625 C-25.66338189 79.51993203 -30.26709912 76.27887915 -34.94921875 70.81640625 C-38.23799278 66.24866454 -40.05133315 62.95249158 -40.14208984 57.32006836 C-40.15815277 56.41159653 -40.1742157 55.50312469 -40.19076538 54.56712341 C-40.23548442 50.39770403 -40.27631598 46.22844165 -40.29931641 42.05883789 C-40.31582435 39.86797424 -40.34304546 37.67716328 -40.38134766 35.48657227 C-40.43649498 32.31368303 -40.45805254 29.14205589 -40.47265625 25.96875 C-40.49532562 25.00170639 -40.517995 24.03466278 -40.54135132 23.03831482 C-40.51761374 15.28799688 -38.44901789 8.80715924 -33.26986694 2.901474 C-24.11117079 -5.97685753 -10.62894009 -6.45404579 0 0 Z " fill="#E2D8B2" transform="translate(414.94921875,45.18359375)"/>
<path d="M0 0 C6.62118992 4.7637187 10.05649501 11.30006261 11.37890625 19.2890625 C11.83565181 27.62835246 8.72087583 34.32057893 3.29150391 40.52050781 C0.93285786 43.08810664 -1.51464519 45.55555295 -4 48 C-4.87785156 48.8765625 -5.75570312 49.753125 -6.66015625 50.65625 C-13.4589298 57.12927087 -18.48585123 60.00898584 -27.875 60.5 C-34.97653938 60.29376843 -40.53088215 58.08773492 -45.84765625 53.35546875 C-51.69936681 46.98616217 -53.61316744 40.55717782 -53.3359375 31.984375 C-52.26638288 22.48275021 -46.45022431 16.62109118 -40 10 C-39.32453125 9.26265625 -38.6490625 8.5253125 -37.953125 7.765625 C-27.28897796 -3.58102745 -14.18083924 -7.91215699 0 0 Z " fill="#E2D8B2" transform="translate(192,601)"/>
<path d="M0 0 C5.1001668 4.53947193 8.53522151 9.89732569 9.31640625 16.79296875 C9.70445609 26.66946301 7.23106738 32.70833546 0.75 40.0625 C-0.82323162 41.7179921 -2.40636004 43.36414442 -4 45 C-4.67546875 45.73734375 -5.3509375 46.4746875 -6.046875 47.234375 C-12.39880589 53.99282947 -19.62844809 58.97959504 -29.125 59.3125 C-36.28140871 59.19479591 -42.56320983 56.67604112 -47.875 51.875 C-52.53822644 46.71568564 -55.11947512 40.44764782 -55.5 33.5 C-54.79318573 21.96883005 -47.82778937 14.69894769 -40 7 C-39.12214844 6.1234375 -38.24429688 5.246875 -37.33984375 4.34375 C-26.47092955 -6.00439706 -13.06307584 -9.24428005 0 0 Z " fill="#E2D8B3" transform="translate(652,144)"/>
<path d="M0 0 C4.5262949 2.98034207 8.34729235 6.69237573 12.21875 10.4609375 C13.19714844 11.34652344 13.19714844 11.34652344 14.1953125 12.25 C20.2913984 17.91640583 25.45775666 25.04863298 26.45703125 33.46875 C26.73624815 41.43377957 24.48521593 48.37091136 19.09375 54.3359375 C13.93443564 58.99916394 7.66639782 61.58041262 0.71875 61.9609375 C-9.81577572 61.34997204 -16.56036463 55.62282871 -23.78125 48.4609375 C-24.52890625 47.75066406 -25.2765625 47.04039062 -26.046875 46.30859375 C-33.30450548 39.30632434 -37.73148759 33.0092944 -38.21875 22.7109375 C-38.07616764 15.52835102 -35.92450757 9.99243591 -31.13671875 4.61328125 C-22.46661236 -3.35225667 -10.64462784 -5.4380164 0 0 Z " fill="#E2D8B2" transform="translate(176.78125,141.5390625)"/>
<path d="M0 0 C3.58050316 2.76551762 6.79041725 5.81663933 10 9 C11.12148438 10.06541016 11.12148438 10.06541016 12.265625 11.15234375 C19.52325548 18.15461316 23.95023759 24.4516431 24.4375 34.75 C24.29491764 41.93258648 22.14325757 47.46850159 17.35546875 52.84765625 C10.98616217 58.69936681 4.55717782 60.61316744 -4.015625 60.3359375 C-13.51691486 59.26642058 -19.37564707 53.44829039 -26 47 C-26.65226563 46.40960937 -27.30453125 45.81921875 -27.9765625 45.2109375 C-34.0726484 39.54453167 -39.23900666 32.41230452 -40.23828125 23.9921875 C-40.51749815 16.02715793 -38.26646593 9.09002614 -32.875 3.125 C-23.23154947 -5.59119568 -11.06438286 -6.33950047 0 0 Z " fill="#E2D8B3" transform="translate(637,601)"/>
</svg>
