<svg version="1.1" viewBox="120 0 720 720" xmlns:xlink="http://www.w3.org/1999/xlink" xmlns="http://www.w3.org/2000/svg">
  <clipPath id="p.0"><path d="m0 0l960 0l0 720l-960 0l0 -720z" clip-rule="nonzero"/></clipPath>
  <g clip-path="url(#p.0)">
    <path fill="#11171b" d="m122.614174 360.0c0 -192.98656 160.00708 -349.43307 357.38583 -349.43307c94.78461 0 185.68707 36.815163 252.70996 102.34657c67.02283 65.53141 104.67584 154.41107 104.67584 247.08649c0 192.98657 -160.00708 349.43304 -357.3858 349.43304c-197.37875 0 -357.38583 -156.44647 -357.38583 -349.43304z"/>
    <path fill="#e2dcce" d="m446.4463 447.51306l-37.109375 0l0 -13.1875l-123.40625 0l0 19.171875l-37.109375 0l0 -196.4375l197.625 0l0 190.45312zm-160.51562 -154.53125l0 105.4375l123.40625 0l0 -105.4375l-123.40625 0zm214.93372 80.78125q130.48438 -54.6875 197.35938 -153.73438l26.71875 22.5q18.015625 13.53125 -8.640625 18.859375q-21.984375 28.890625 -56.640625 58.953125l0 165.5l-37.109375 0l0 -135.21875q-34.65625 26.734375 -94.734375 54.859375l-26.953125 -31.71875z"/>
  </g>
</svg>
